<svg data-v-423bf9ae="" xmlns="http://www.w3.org/2000/svg" viewBox="0 0 197 90" class="iconLeft"><!----><!----><!----><g data-v-423bf9ae="" id="11a1f6c4-0e1a-4315-afdd-43f87a3ae629" fill="black" transform="matrix(5.595710035331088,0,0,5.595710035331088,103.73346000000299,13.041500996594127)"><path d="M6.43 2.23L6.43 2.23L3.46 2.23C3.19 2.23 2.98 2.42 2.98 2.69L2.98 4.56C2.98 4.82 3.19 5.03 3.46 5.03L5.56 5.03C5.82 5.03 6.03 4.82 6.03 4.56C6.03 4.30 5.82 4.09 5.56 4.09L3.92 4.09L3.92 3.15L6.43 3.15C6.69 3.15 6.90 2.94 6.90 2.69C6.90 2.42 6.69 2.23 6.43 2.23ZM5.56 5.96L5.56 5.96L3.46 5.96C3.19 5.96 2.98 6.17 2.98 6.43L2.98 8.30C2.98 8.55 3.19 8.76 3.46 8.76L6.43 8.76C6.69 8.76 6.90 8.55 6.90 8.30C6.90 8.04 6.69 7.83 6.43 7.83L3.92 7.83L3.92 6.90L5.56 6.90C5.82 6.90 6.03 6.69 6.03 6.43C6.03 6.17 5.82 5.96 5.56 5.96ZM6.43 9.70L6.43 9.70L2.06 9.70L2.06 1.29L6.43 1.29C6.69 1.29 6.90 1.08 6.90 0.81C6.90 0.56 6.69 0.35 6.43 0.35L1.58 0.35C1.33 0.35 1.12 0.56 1.12 0.81L1.12 10.18C1.12 10.43 1.33 10.64 1.58 10.64L6.43 10.64C6.69 10.64 6.90 10.43 6.90 10.18C6.90 9.91 6.69 9.70 6.43 9.70ZM9.91 0.99L9.91 0.99L11.77 5.60C11.94 5.98 12.49 5.98 12.64 5.60L14.53 0.99C14.62 0.74 14.50 0.49 14.27 0.38C14.03 0.29 13.75 0.41 13.66 0.64L12.22 4.19L10.77 0.64C10.67 0.41 10.40 0.29 10.15 0.38C9.93 0.49 9.80 0.74 9.91 0.99ZM15.78 0.64L15.78 0.64L12.22 9.38L8.65 0.64C8.55 0.41 8.29 0.29 8.05 0.38C7.80 0.49 7.70 0.74 7.78 0.99L11.77 10.78C11.94 11.17 12.47 11.17 12.64 10.78L16.63 0.99C16.73 0.74 16.62 0.49 16.38 0.38C16.16 0.29 15.88 0.41 15.78 0.64Z"></path></g><!----><g data-v-423bf9ae="" id="1b57c4d0-a0c2-49e3-a249-4f8bef01137d" transform="matrix(1.3235294117647058,0,0,1.3235294117647058,-21.183352189905506,-20.16316565345315)" stroke="none" fill="black"><path d="M25.978 74.001c13.279 13.277 34.808 13.277 48.085.001 13.277-13.279 13.277-34.807 0-48.086-13.278-13.277-34.806-13.276-48.085.002-13.278 13.277-13.276 34.805 0 48.083zM67.335 35.95c.007.055.016.109.02.164.01.101.015.206.015.314l.001.01v24.026a3.825 3.825 0 01-7.652.002l.001-14.796-20.518 20.518a3.827 3.827 0 01-5.41-5.411L54.31 40.26H39.516a3.825 3.825 0 11-.003-7.65h24.031c.114 0 .221.005.326.017.045.002.091.008.135.013a.919.919 0 01.105.017 3.803 3.803 0 013.214 3.215c.004.026.006.052.011.078z"></path></g><!----></svg>